<svg width="222" height="519" viewBox="0 0 222 519" fill="none" xmlns="http://www.w3.org/2000/svg">
<path d="M350.628 -52.0768C361.623 -31.6965 368.335 -10.1521 371.072 11.5226C311.606 11.6639 251.315 26.0754 195.318 56.2881C142.912 84.5629 100.008 123.579 67.8603 169.142C53.0313 155.66 40.1929 139.48 30.136 120.84C-17.6138 32.3389 15.4219 -78.1143 103.923 -125.864C192.424 -173.614 302.878 -140.578 350.628 -52.0768ZM45.1681 560.774C-23.9153 432.732 -10.1616 282.18 68.0283 170.642C123.911 220.817 207.421 233.218 277.315 195.508C345.458 158.742 380.898 85.0064 372.203 12.5218C504.349 12.6096 632.248 83.333 699.398 207.793C796.871 388.453 729.435 613.925 548.774 711.398C368.113 808.871 142.641 741.435 45.1681 560.774ZM195.793 57.1681C251.677 27.0162 311.85 12.6443 371.196 12.5225C379.896 84.6493 344.648 158.043 276.84 194.627C207.291 232.152 124.186 219.786 68.6077 169.818C100.677 124.335 143.49 85.3875 195.793 57.1681Z" stroke="url(#paint0_linear_1_2)"/>
<defs>
<linearGradient id="paint0_linear_1_2" x1="52.0683" y1="574.616" x2="704.92" y2="216.974" gradientUnits="userSpaceOnUse">
<stop stop-color="#D4B098"/>
<stop offset="1" stop-color="#D4B098" stop-opacity="0"/>
</linearGradient>
</defs>
</svg>
